<?xml version="1.0" standalone="no"?><!DOCTYPE svg PUBLIC "-//W3C//DTD SVG 1.1//EN" "http://www.w3.org/Graphics/SVG/1.1/DTD/svg11.dtd"><svg t="1608094895564" class="icon" viewBox="0 0 1024 1024" version="1.1" xmlns="http://www.w3.org/2000/svg" p-id="5480" xmlns:xlink="http://www.w3.org/1999/xlink" width="200" height="200"><defs><style type="text/css"></style></defs><path d="M639.957333 288c-70.570667 0-128-57.429333-128-128s57.429333-128 128-128 128 57.429333 128 128-57.429333 128-128 128z m0-192c-35.285333 0-64 28.714667-64 64s28.714667 64 64 64 64-28.714667 64-64-28.714667-64-64-64zM191.957333 992c-105.856 0-192-86.144-192-192s86.144-192 192-192 192 86.144 192 192-86.144 192-192 192z m0-320c-70.570667 0-128 57.429333-128 128s57.429333 128 128 128 128-57.429333 128-128-57.429333-128-128-128zM831.957333 992c-105.856 0-192-86.144-192-192s86.144-192 192-192 192 86.144 192 192-86.144 192-192 192z m0-320c-70.570667 0-128 57.429333-128 128s57.429333 128 128 128 128-57.429333 128-128-57.429333-128-128-128z" p-id="5481"></path><path d="M512 896a96.085333 96.085333 0 0 1-96-96 222.592 222.592 0 0 0-120.746667-198.912 96.170667 96.170667 0 0 1-21.802666-154.752l172.458666-163.925333a94.805333 94.805333 0 0 1 68.693334-26.368 95.189333 95.189333 0 0 1 67.029333 29.824c6.528 6.869333 12.032 14.677333 16.298667 23.168C598.101333 309.418667 638.677333 384 704 384a96.085333 96.085333 0 0 1 96 96 96.085333 96.085333 0 0 1-96 96 304.725333 304.725333 0 0 1-202.026667-81.962667l-14.122666 13.44a416 416 0 0 1 120.149333 292.608A96.085333 96.085333 0 0 1 512 896z m0-576a31.829333 31.829333 0 0 0-22.016 8.789333l-172.458667 163.925334a32.042667 32.042667 0 0 0 7.253334 51.584 286.08 286.08 0 0 1 155.264 255.744 32 32 0 0 0 64-0.042667 349.952 349.952 0 0 0-123.648-267.861333 32.128 32.128 0 0 1-1.322667-47.573334l61.994667-58.922666a31.829333 31.829333 0 0 1 22.016-8.789334l1.792 0.042667a32.085333 32.085333 0 0 1 22.656 11.264 237.781333 237.781333 0 0 0 177.066666 83.882667 32 32 0 0 0-0.554666-64c-103.381333 0-160.554667-105.088-162.944-109.525334a33.408 33.408 0 0 0-5.845334-8.490666 31.701333 31.701333 0 0 0-22.4-10.026667H512z" p-id="5482"></path></svg>